<svg xmlns="http://www.w3.org/2000/svg" width="290.975" height="317.4" viewBox="0 0 290.975 317.4">
  <g id="Group_4" data-name="Group 4" transform="translate(-32 -43.865)">
    <path id="Path_4" data-name="Path 4" d="M295.96,141.087c23.4-4.856,42.06,20.27,63.033,31.8,21.529,11.832,52.939,14.489,62.106,37.407,9.451,23.627-11.517,48.473-18.539,72.944-5.14,17.912-7.069,37.046-17.612,52.37-10.09,14.666-26.137,22.7-40.786,32.731-15.76,10.79-29.525,24.253-48.2,28.055-20.541,4.182-43.17,3.434-62.106-5.611-19.546-9.337-32.518-27.673-44.494-45.824-12.535-19-25.41-38.916-25.955-61.722-.549-22.992,6.428-47.012,22.247-63.592,15.116-15.843,42.4-10.749,60.252-23.379,20.483-14.494,25.541-50.087,50.056-55.176" transform="translate(-127.875 -96.607)" fill="#edc5a1"/>
    <g id="Group_3" data-name="Group 3" transform="translate(33.5 111.865)">
      <g id="XMLID_11_" transform="translate(0 69.897)" opacity="0.15">
        <line id="XMLID_73_" x2="273.995" transform="translate(0 178.004)" fill="none" stroke="#474747" stroke-linecap="round" stroke-linejoin="round" stroke-miterlimit="10" stroke-width="3"/>
        <g id="XMLID_10_" transform="translate(6.524 0)">
          <line id="XMLID_3_" y1="135.134" transform="translate(226.465 42.87)" fill="none" stroke="#474747" stroke-linecap="round" stroke-linejoin="round" stroke-miterlimit="10" stroke-width="3"/>
          <path id="XMLID_2_" d="M705.208,325.743c10.062,13.07,35.835,96.923-11.184,96.923s-20.313-83.854-10.251-96.923c3.515-4.566,7.066-6.524,10.251-6.524S701.693,321.176,705.208,325.743Z" transform="translate(-467.559 -319.219)" fill="none" stroke="#474747" stroke-linecap="round" stroke-linejoin="round" stroke-miterlimit="10" stroke-width="3"/>
          <line id="XMLID_7_" y1="11.183" x2="10.252" transform="translate(226.465 53.122)" fill="none" stroke="#474747" stroke-linecap="round" stroke-linejoin="round" stroke-miterlimit="10" stroke-width="3"/>
          <line id="XMLID_8_" x1="13.979" y1="13.979" transform="translate(212.486 74.557)" fill="none" stroke="#474747" stroke-linecap="round" stroke-linejoin="round" stroke-miterlimit="10" stroke-width="3"/>
          <circle id="XMLID_12_" cx="20.177" cy="20.177" r="20.177" transform="translate(241.251 78.391)" fill="#fff"/>
          <circle id="XMLID_4_" cx="20.503" cy="20.503" r="20.503" transform="translate(240.445 78.284)" fill="none" stroke="#474747" stroke-linecap="round" stroke-linejoin="round" stroke-miterlimit="10" stroke-width="3"/>
          <line id="XMLID_9_" y1="38.21" x2="38.21" transform="translate(226.465 95.06)" fill="none" stroke="#474747" stroke-linecap="round" stroke-linejoin="round" stroke-miterlimit="10" stroke-width="3"/>
          <line id="XMLID_14_" x1="16.775" transform="translate(248.832 110.903)" fill="none" stroke="#474747" stroke-linecap="round" stroke-linejoin="round" stroke-miterlimit="10" stroke-width="3"/>
          <line id="XMLID_15_" y1="7.456" transform="translate(257.22 95.06)" fill="none" stroke="#474747" stroke-linecap="round" stroke-linejoin="round" stroke-miterlimit="10" stroke-width="3"/>
          <line id="XMLID_16_" x1="33.55" y1="33.55" transform="translate(192.915 123.95)" fill="none" stroke="#474747" stroke-linecap="round" stroke-linejoin="round" stroke-miterlimit="10" stroke-width="3"/>
          <ellipse id="XMLID_13_" cx="17.538" cy="23.838" rx="17.538" ry="23.838" transform="matrix(0.798, -0.602, 0.602, 0.798, 168.834, 117.619)" fill="none" stroke="#474747" stroke-linecap="round" stroke-linejoin="round" stroke-miterlimit="10" stroke-width="3"/>
          <line id="XMLID_79_" y1="11.183" transform="translate(209.69 129.542)" fill="none" stroke="#474747" stroke-linecap="round" stroke-linejoin="round" stroke-miterlimit="10" stroke-width="3"/>
          <line id="XMLID_80_" x2="8.388" transform="translate(192.915 132.338)" fill="none" stroke="#474747" stroke-linecap="round" stroke-linejoin="round" stroke-miterlimit="10" stroke-width="3"/>
          <rect id="XMLID_86_" width="9.32" height="22.367" transform="translate(21.435 153.773)" fill="none" stroke="#474747" stroke-linecap="round" stroke-linejoin="round" stroke-miterlimit="10" stroke-width="3"/>
          <rect id="XMLID_85_" width="9.32" height="22.367" transform="translate(117.426 153.773)" fill="none" stroke="#474747" stroke-linecap="round" stroke-linejoin="round" stroke-miterlimit="10" stroke-width="6"/>
          <rect id="XMLID_84_" width="6.524" height="49.394" transform="translate(27.959 94.128)" fill="none" stroke="#474747" stroke-linecap="round" stroke-linejoin="round" stroke-miterlimit="10" stroke-width="3"/>
          <rect id="XMLID_83_" width="6.524" height="49.394" transform="translate(113.699 94.128)" fill="none" stroke="#474747" stroke-linecap="round" stroke-linejoin="round" stroke-miterlimit="10" stroke-width="6"/>
          <rect id="XMLID_89_" width="129.133" height="12.913" transform="translate(7.197 102.604)" fill="#fff" stroke="#707070" stroke-width="3"/>
          <rect id="XMLID_82_" width="129.542" height="13.979" transform="translate(6.524 101.583)" fill="none" stroke="#474747" stroke-linecap="round" stroke-linejoin="round" stroke-miterlimit="10" stroke-width="3"/>
          <rect id="XMLID_88_" width="129.133" height="12.913" transform="translate(7.197 115.517)" fill="#fff" stroke="#707070" stroke-width="3"/>
          <rect id="XMLID_81_" width="129.542" height="13.979" transform="translate(6.524 115.563)" fill="none" stroke="#474747" stroke-linecap="round" stroke-linejoin="round" stroke-miterlimit="10" stroke-width="3"/>
          <circle id="XMLID_77_" cx="1.864" cy="1.864" r="1.864" transform="translate(115.563 107.175)" fill="none" stroke="#474747" stroke-linecap="round" stroke-linejoin="round" stroke-miterlimit="10" stroke-width="6"/>
          <ellipse id="XMLID_91_" cx="1.864" cy="1.398" rx="1.864" ry="1.398" transform="translate(115.563 121.154)" fill="none" stroke="#474747" stroke-linecap="round" stroke-linejoin="round" stroke-miterlimit="10" stroke-width="6"/>
          <circle id="XMLID_93_" cx="1.864" cy="1.864" r="1.864" transform="translate(28.891 107.175)" fill="none" stroke="#474747" stroke-linecap="round" stroke-linejoin="round" stroke-miterlimit="10" stroke-width="3"/>
          <ellipse id="XMLID_92_" cx="1.864" cy="1.398" rx="1.864" ry="1.398" transform="translate(28.891 121.154)" fill="none" stroke="#474747" stroke-linecap="round" stroke-linejoin="round" stroke-miterlimit="10" stroke-width="3"/>
          <rect id="XMLID_87_" width="146.317" height="10.252" transform="translate(0 143.521)" fill="none" stroke="#474747" stroke-linecap="round" stroke-linejoin="round" stroke-miterlimit="10" stroke-width="3"/>
        </g>
      </g>
      <g id="Group_2" data-name="Group 2" transform="translate(78.292 0)">
        <path id="XMLID_104_" d="M422.473,713.088l.932,11.183c.245,1.775,1.75,3.728,3.728,3.728h53.121c1.978,0,4.414-1.953,4.66-3.728l.932-11.183Z" transform="translate(-395.919 -479.633)" fill="#d6d6d4"/>
        <path id="XMLID_74_" d="M479.322,728l3.728-.932,2.8-13.979H422.473v3.728h53.122C483.168,716.816,479.322,728,479.322,728Z" transform="translate(-395.919 -479.633)" fill="#bababa"/>
        <path id="XMLID_103_" d="M462.778,539.08l14.911-115.563H371.446L386.357,539.08c.287,2.3,2.3,4.66,4.66,4.66h67.1C460.48,543.739,462.49,541.377,462.778,539.08Z" transform="translate(-366.328 -310.284)" fill="#5eb173"/>
        <path id="XMLID_75_" d="M462.778,539.08l14.911-115.563H371.446L386.357,539.08c.287,2.3,2.3,4.66,4.66,4.66h67.1C460.48,543.739,462.49,541.377,462.778,539.08Z" transform="translate(-366.328 -310.284)" fill="#c76838"/>
        <g id="XMLID_30_" transform="translate(34.938 190.574)">
          <path id="XMLID_134_" d="M487.392,638.115a2.631,2.631,0,0,1-1.864-.932,5.526,5.526,0,0,1-1.864-3.728,6.173,6.173,0,0,1,1.864-4.66,4.893,4.893,0,0,1,2.8-.932c.13,0-.128-.02,0,0,.814.129,1.289.059,1.864.932a8.434,8.434,0,0,1,.932,5.592c-.461,1.806-1.785,3.67-3.728,3.728Zm0-5.592c-.36.86-.1.838,0,.932.009.008-.014-.008,0,0,.048-.053-.074.208,0,0A1.159,1.159,0,0,0,487.392,632.523Z" transform="translate(-466.886 -620.397)" fill="#60a06c" opacity="0.34"/>
          <path id="XMLID_19_" d="M495.406,632.114c-.55,0-1.431.291-1.864,0-.928-.624-.256-1.622,0-4.66.162-1.924-.206-4.738,0-9.32.01-.233-.017-.7,0-.932h0c-.1,0,.091-.008,0,0-.329.031-.6-.013-.932,0-.358.014-.6-.037-.932,0-.138.016-.824-.014-.932,0-.259.033.179,0,0,0-.371,0-.707.235-.932,0-.854-.89.212-3.023.932-3.728a2.245,2.245,0,0,1,1.864-.932c.548,0,1.136.757,1.864.932a5.314,5.314,0,0,1,1.864-2.8,5.723,5.723,0,0,1,2.8-.932c.165,0-.163-.025,0,0a3.765,3.765,0,0,1,1.864.932,2.754,2.754,0,0,1,.932,1.864c.316-.109.527-.932.932-.932.149,0,.786.911.932.932.234.035.35-.586.932,0a3.8,3.8,0,0,1,.932,2.8v.932c.135-.058-.1.092,0,0a4.708,4.708,0,0,0,.932-1.864v-.932l1.864,1.864h0a2.349,2.349,0,0,1,0,2.8c-.623.795-1.892.932-3.728.932a16.688,16.688,0,0,1-1.864,0,45.987,45.987,0,0,1-.932,4.66c.022.844.909,1.192.932,1.864.123,3.676-.678,4.722-1.864,5.592-.418.306-.387.932-.932.932h0c-.5,0-1.471.265-1.864,0-.416-.279.071-1.311,0-1.864a4.894,4.894,0,0,1-.932,1.864C496.81,632.452,496.008,632.114,495.406,632.114Zm2.8-13.979a20.935,20.935,0,0,0,0,3.728c.025.973-.026,2.02,0,2.8.01.319-.009.641,0,.932.118-1.534-.119-2.94,0-5.592.02-.449-.043-1.449,0-1.864C498.055,618.1,498.348,618.173,498.2,618.134Zm5.592-1.864a2.852,2.852,0,0,0,.932,0c.133,0-.115.014,0,0h0a3.423,3.423,0,0,0-.932,0c-.035,0,.037-.006,0,0S504.039,616.062,503.794,616.271Zm-4.66-1.864c.228-.509.624-.574.932-.932-.027,0,.026,0,0,0-.051,0,.055-.009,0,0,0,0-.539.5-.932.932-.073.079.133-.311,0,0Z" transform="translate(-470.241 -609.736)" fill="#60a06c" opacity="0.34"/>
          <path id="XMLID_26_" d="M522.044,640.392a2.3,2.3,0,0,1-1.864-.932,3.926,3.926,0,0,1-.932-3.728c.373-1.83,1.541-4.711,3.728-5.592a12.875,12.875,0,0,1,1.864,0c.792,0,1.333-.451,1.864,0a3.937,3.937,0,0,1,.932,3.728,4.549,4.549,0,0,1-1.864,2.8c.1.127-.029-.258,0,0a4.181,4.181,0,0,1-.932,2.8A4.034,4.034,0,0,1,522.044,640.392Zm1.864-7.456c-.117.043.148.822,0,.932C524.069,633.791,523.8,633.013,523.908,632.936Z" transform="translate(-487.559 -621.742)" fill="#60a06c" opacity="0.34"/>
          <path id="XMLID_24_" d="M537.766,641.935A2.186,2.186,0,0,1,535.9,641a4.109,4.109,0,0,1-.932-3.728c.413-2.006,1.294-4.038,2.8-4.66a5.4,5.4,0,0,1,1.864,0,2.164,2.164,0,0,1,1.864.932,3.6,3.6,0,0,1,.932,2.8c-.26.873-1.165,1.4-1.864,1.864.121.13-.029.63,0,.932.055.586.659,1.264,0,1.864A5.135,5.135,0,0,1,537.766,641.935Z" transform="translate(-496.757 -623.285)" fill="#60a06c" opacity="0.34"/>
          <path id="XMLID_21_" d="M455.062,633.814a6.27,6.27,0,0,1-1.864,0,7.376,7.376,0,0,1-4.66-4.66c-1.033-2.648-1.5-6.3,0-9.32-.615.12-.441.632-.932.932a5.134,5.134,0,0,1-1.864.932c-.284,0-.708.168-.932,0a2.212,2.212,0,0,1-.932-1.864c.053-.976.758-3.076,1.864-3.728.415-.245,1.321,0,1.864,0a9.32,9.32,0,0,1,3.728.932,8.372,8.372,0,0,1,3.728-2.8,9.9,9.9,0,0,1,2.8,0,1.941,1.941,0,0,1,1.864.932,3.332,3.332,0,0,1,0,4.66,5.035,5.035,0,0,1-3.728,1.864c-.111.007-.827,0-.932,0a5.483,5.483,0,0,1-1.864,0c-.188-.053-.761.057-.932,0-.8,2.779-.433,5.388.932,6.524a3.265,3.265,0,0,0,1.864.932,8.045,8.045,0,0,0,.932,0,1.119,1.119,0,0,0,.932-.932c.116-.431.248-1.568,0-1.864-.174-.208-.711.089-.932,0-.247-.1-.992-.231-.932-.932.067-.794,1.9-1.864,2.8-1.864.253,0-.231-.06,0,0,1.92.495,3.248,3.224,2.8,5.592a6.7,6.7,0,0,1-1.864,3.728,5.979,5.979,0,0,1-3.728.932ZM454.13,618.9c.512.267.573,0,.932,0,.073,0-.08.009,0,0,.715-.087,1.655-.284,1.864-.932a1.7,1.7,0,0,0,0-.932c-.016-.016.218,0,0,0-.483,0-1.448-.217-1.864,0h0C454.616,617.281,454.513,618.418,454.13,618.9Z" transform="translate(-443.875 -612.368)" fill="#60a06c" opacity="0.34"/>
        </g>
        <path id="XMLID_72_" d="M371.446,423.517l.932,9.32h88.536c3.37,0,6.01,2.247,5.592,5.592l-9.32,95.991a8.206,8.206,0,0,1-6.524,7.456l-10.252,1.864h17.707c2.362,0,4.372-2.363,4.66-4.66l14.911-115.563Z" transform="translate(-366.328 -310.285)" fill="#c75538"/>
        <path id="XMLID_63_" d="M421.973,712.588l1.864,12.115c.245,1.775,1.75,2.8,3.728,2.8h53.122c1.978,0,3.482-1.021,3.728-2.8l1.864-12.115Z" transform="translate(-395.885 -479.599)" fill="none" stroke="#474747" stroke-linecap="round" stroke-linejoin="round" stroke-miterlimit="10" stroke-width="3"/>
        <path id="XMLID_59_" d="M463.278,539.512l13.979-116.495H371.946l13.979,116.495a4.42,4.42,0,0,0,4.66,3.728h68.033A4.42,4.42,0,0,0,463.278,539.512Z" transform="translate(-366.362 -310.25)" fill="none" stroke="#474747" stroke-linecap="round" stroke-linejoin="round" stroke-miterlimit="10" stroke-width="3"/>
        <path id="XMLID_108_" d="M472.426,398.168H362.455c-3.6.033-3.112-1.88-1.864-5.592a9.817,9.817,0,0,0,0-6.524c-1.248-3.712-1.738-5.625,1.864-5.592H472.426c3.6-.033,3.112,1.879,1.864,5.592a9.816,9.816,0,0,0,0,6.524C475.538,396.289,476.028,398.2,472.426,398.168Z" transform="translate(-359.201 -284.936)" fill="#646464"/>
        <g id="Group_1" data-name="Group 1" transform="translate(0.175 95.525)">
          <path id="Path_1" data-name="Path 1" d="M636.247,386.99c.806-2.4,1.654-4.729.932-5.592-.155.546-.71,1.2-.932,1.864-.542,1.589-.248,3.949,0,5.592C636.339,388.24,636.045,387.582,636.247,386.99Z" transform="translate(-521.333 -381.398)" fill="#7c7c7c"/>
          <path id="Path_2" data-name="Path 2" d="M360.573,388.853c.247-1.643.542-4,0-5.592-.222-.659-.777-1.318-.932-1.864-.722.863.126,3.2.932,5.592C360.775,387.582,360.48,388.24,360.573,388.853Z" transform="translate(-359.357 -381.397)" fill="#7c7c7c"/>
          <path id="Path_3" data-name="Path 3" d="M475.2,414.419a3.948,3.948,0,0,1-2.8.932H362.435a3.948,3.948,0,0,1-2.8-.932c-.72,2.529-.167,3.755,2.8,3.728H472.406C475.368,418.174,475.922,416.948,475.2,414.419Z" transform="translate(-359.356 -400.44)" fill="#7c7c7c"/>
        </g>
        <g id="XMLID_68_" transform="translate(0.422 95.523)">
          <path id="XMLID_69_" d="M636.242,409.125c-.068-.2.055-.731,0-.932a12.459,12.459,0,0,0,0,6.524C637.784,414.078,637.217,412.027,636.242,409.125Z" transform="translate(-521.574 -397.007)" fill="#646464"/>
          <path id="XMLID_70_" d="M360.588,389.781c.43-.178,2.179-3.728,4.66-3.728H470.559c3,0,3.3,5.414,3.728,5.592.019-.058-.019-5.535,0-5.592,1.249-3.715,1.747-5.628-1.864-5.592H362.452c-3.724-.074-3.125,1.841-1.864,5.592C360.608,386.11,360.57,389.724,360.588,389.781Z" transform="translate(-359.62 -380.459)" fill="#646464"/>
          <path id="XMLID_71_" d="M360.589,414.716a12.462,12.462,0,0,0,0-6.524c-.056.2.068.733,0,.932C359.613,412.027,359.047,414.078,360.589,414.716Z" transform="translate(-359.621 -397.007)" fill="#646464"/>
        </g>
        <path id="XMLID_44_" d="M472.858,397.668h-110.9c-3.6.033-3.112-1.88-1.864-5.592a9.817,9.817,0,0,0,0-6.524c-1.248-3.712-1.738-5.625,1.864-5.592h110.9c3.6-.033,3.112,1.88,1.864,5.592a9.815,9.815,0,0,0,0,6.524C475.97,395.789,476.46,397.7,472.858,397.668Z" transform="translate(-359.167 -284.902)" fill="none" stroke="#474747" stroke-linecap="round" stroke-linejoin="round" stroke-miterlimit="10" stroke-width="3"/>
        <path id="XMLID_106_" d="M478.068,361.4H373.689l.932-3.728c1.627-5.8,7.646-10.252,13.979-10.252h74.556c6.334,0,12.352,4.453,13.979,10.252Z" transform="translate(-367.638 -265.875)" fill="#d6d6d4"/>
        <path id="XMLID_66_" d="M478.068,361.4H373.689l.932-3.728c1.627-5.8,7.646-10.252,13.979-10.252h74.556c6.334,0,12.352,4.453,13.979,10.252Z" transform="translate(-367.638 -265.875)" fill="#e9ddcb"/>
        <path id="XMLID_76_" d="M396.056,352.081h70.829c5.14,0,7.906,3.274,9.32,3.728-2.508-3.767-8.156-8.388-13.047-8.388H388.6c-6.333,0-12.352,4.453-13.979,10.252l-.932,3.728h9.32C385.188,356.608,390.418,352.081,396.056,352.081Z" transform="translate(-367.639 -265.875)" fill="#fdf7ee"/>
        <path id="XMLID_43_" d="M477.636,360.968H374.189l.932-3.728c1.627-5.8,6.714-9.32,13.047-9.32h75.488c6.334,0,11.42,3.521,13.047,9.32Z" transform="translate(-367.672 -265.909)" fill="none" stroke="#474747" stroke-linecap="round" stroke-linejoin="round" stroke-miterlimit="10" stroke-width="3"/>
        <path id="XMLID_107_" d="M535.542,335.783H506.651v-2.8a5.6,5.6,0,0,1,5.592-5.592H529.95a5.6,5.6,0,0,1,5.592,5.592Z" transform="translate(-445.615 -254.237)" fill="#d6d6d4"/>
        <path id="XMLID_67_" d="M535.542,335.783H506.651v-2.8a5.6,5.6,0,0,1,5.592-5.592H529.95a5.6,5.6,0,0,1,5.592,5.592Z" transform="translate(-445.615 -254.237)" fill="#d6d6d4"/>
        <path id="XMLID_78_" d="M506.652,335.784a5.8,5.8,0,0,1,5.592-5.592h17.707a5.669,5.669,0,0,1,5.592,4.66v-1.864a5.8,5.8,0,0,0-5.592-5.592H512.243a5.8,5.8,0,0,0-5.592,5.592v2.8Z" transform="translate(-445.616 -254.238)" fill="#fff"/>
        <path id="XMLID_32_" d="M468.018,527.456c-4.4,0-12.351-3.777-14.911-12.115a22.413,22.413,0,0,1,2.8-20.5,15.071,15.071,0,0,1,12.115-6.524c1.294,0,2.481-.465,3.728,0h0c.881.5,1.71,1.161,1.864,1.864.262,1.2-.835,2.3-1.864,3.728-2.064,2.86-4.642,6.75-1.864,13.979,3.22,8.379,2.93,16.746.932,18.639A4.675,4.675,0,0,1,468.018,527.456Z" transform="translate(-413.506 -348.055)" fill="#60a06c"/>
        <path id="XMLID_42_" d="M535.11,336.283H507.151v-2.8a5.6,5.6,0,0,1,5.592-5.592h16.775a5.6,5.6,0,0,1,5.592,5.592Z" transform="translate(-445.649 -254.271)" fill="none" stroke="#474747" stroke-linecap="round" stroke-linejoin="round" stroke-miterlimit="10" stroke-width="3"/>
        <path id="XMLID_31_" d="M506.029,530.36a7.061,7.061,0,0,1-4.66-1.864,5,5,0,0,1-.932-3.728c.219-3.307-.773-6.26-1.864-9.32a25.937,25.937,0,0,1-1.864-8.388c-.024-10.1,6.619-13.623,7.456-13.979.535-.321,1.2,0,1.864,0,2.695,0,5.971,2.421,8.388,6.524a24.832,24.832,0,0,1,0,24.231c-2.258,4.075-5.163,6.524-8.388,6.524Z" transform="translate(-439.402 -350.958)" fill="#60a06c"/>
        <path id="XMLID_33_" d="M473.545,487.727c4.888,2.763-7.772,5.69-2.8,18.639,3.4,8.843,3.321,16.326,1.864,17.707s-12.728-.058-15.843-10.252C451.628,499.847,462.564,483.63,473.545,487.727Z" transform="translate(-415.305 -347.468)" fill="#f6f9e4"/>
        <path id="XMLID_27_" d="M506.832,492.508s-7.479,2.958-7.456,13.047c.013,5.641,4.154,11.251,3.728,17.707-.3,4.484,7.039,7.3,12.115-1.864C524.166,505.257,511.784,489.381,506.832,492.508Z" transform="translate(-441.136 -350.385)" fill="#f6f9e4"/>
        <g id="XMLID_102_" transform="translate(35.551 190.396)">
          <path id="XMLID_39_" d="M486.121,628.794a4.6,4.6,0,0,0,0,6.524c.122.1.054.958.932.932,1.573-.047,3.364-2.3,3.728-3.728a3.9,3.9,0,0,0-2.8-4.66A2.1,2.1,0,0,0,486.121,628.794Zm2.8,3.728c-.043.122-.375.854-.932.932a3.091,3.091,0,0,1-.932,0c-.5-.458-.516-1.676,0-2.8.32-.508.763-.944.932-.932C488.559,629.768,489.3,631.448,488.916,632.522Z" transform="translate(-468.092 -620.217)" fill="#f6f9e4"/>
          <path id="XMLID_38_" d="M499.442,630.237c-.884-.594.426-1.778.932-13.047.14-3.109.242-6.334,1.864-7.456a6.491,6.491,0,0,1,2.8,0c.237.035.493-.443.932,0a3.134,3.134,0,0,1,.932,1.864,5.1,5.1,0,0,0-1.864,0,11.4,11.4,0,0,0-.932.932c-1.577,1.714-.932,9.32-.932,9.32.152,5.912.219,7.543-.932,8.388A3.109,3.109,0,0,1,499.442,630.237Z" transform="translate(-476.753 -609.545)" fill="#f6f9e4"/>
          <path id="XMLID_37_" d="M510.827,633.973c-.766-.515.493-1.421.932-11.183.121-2.693.459-5.553,1.864-6.524.278-.192.895-1.076,1.864-.932.206.031.551.548.932.932a3.7,3.7,0,0,1,.932,1.864c-.213-.113-.44-.082-.932,0,0,0-1.336-.574-1.864,0-1.366,1.485-.932,8.388-.932,8.388.131,5.121.066,6.724-.932,7.456A1.654,1.654,0,0,1,510.827,633.973Z" transform="translate(-483.478 -613.281)" fill="#f6f9e4"/>
          <path id="XMLID_36_" d="M523.563,636.649c-.355.092-.584.252-.932,0a2.684,2.684,0,0,1,0-3.728c.155-.175,1.015-1.23,1.864-.932.256.09.909-.306.932,0,.051.685-1.487,1.768-2.8,1.864a6.531,6.531,0,0,1-1.864,0,.7.7,0,0,0,0,.932c.267.794,1.623.011,1.864,0,.154-.007,4.084.244,4.66-1.864a3.163,3.163,0,0,0-.932-2.8c-1.067-.906-2.569-.092-2.8,0-2.923,1.178-4.3,5.949-2.8,7.456a2.869,2.869,0,0,0,3.728,0c.664-.652,1.119-1.748.932-1.864S524.479,636.412,523.563,636.649Z" transform="translate(-488.759 -621.548)" fill="#f6f9e4"/>
          <path id="XMLID_35_" d="M539.281,639.138a3.843,3.843,0,0,1-1.864,0c-.778-.565,0-2.593.932-3.728.143-.174.367-1.121.932-.932.274.092.943-.3.932,0a2.547,2.547,0,0,1-1.864,1.864,6.158,6.158,0,0,1-1.864,0,.779.779,0,0,0,0,.932c.207.617,1.257.048,1.864,0,1.086-.085,3.292-.4,3.728-1.864a3.423,3.423,0,0,0-.932-1.864,2.731,2.731,0,0,0-2.8-.932c-2.425,1-3.3,5.049-1.864,6.524.822.844,1.918,1.73,2.8.932.605-.55,1.1-1.759.932-1.864S540.095,638.927,539.281,639.138Z" transform="translate(-497.953 -623.105)" fill="#f6f9e4"/>
          <path id="XMLID_34_" d="M507.158,619.267c-.044.519.5.449,0,.932-2.853,2.743-13.056-4.591-15.843-1.864-.6.59-1.282,1.5-.932,1.864.16.167.168.086.932,0,.674-.076,1.189.063,1.864,0,1.651-.155,4.835,1.309,7.456,1.864.66.14,5.276.659,6.524-.932.157-.2,1.267-1.194.932-1.864h0C507.832,619.025,507.417,619.508,507.158,619.267Z" transform="translate(-471.422 -614.417)" fill="#f6f9e4"/>
          <path id="XMLID_25_" d="M451.935,617.937c1.768.858,2.569,1.073,3.728.932.92-.112,2.456-.811,2.8-1.864.135-.417-.54-.528-.932-.932-.6-.616-1.985-.423-2.8,0h0c-3.588,1.957-4.765,9.7-1.864,12.115a5.321,5.321,0,0,0,3.728.932,2.907,2.907,0,0,0,1.864-1.864c.177-.654-.486-1.33-.932-1.864-.532-.637-.951-.713-.932-.932a2.117,2.117,0,0,1,1.864-.932c1.473.38,2.241,2.687,1.864,4.66a8,8,0,0,1-1.864,3.728c-1.486,1.067-3.938.5-5.592,0a5.564,5.564,0,0,1-3.728-3.728c-2.034-5.209,1.787-12.479,6.524-13.979.349-.111,2.643-1.229,3.728,0a4.069,4.069,0,0,1,0,4.66,6.826,6.826,0,0,1-3.728,1.864c-.827.049-1.036-.7-1.864-.932a26.164,26.164,0,0,0-3.728-.932c-2.243-.334-3.922,1.483-4.66.932-.653-.489-.3-3,.932-3.728S449.623,616.816,451.935,617.937Z" transform="translate(-445.089 -612.156)" fill="#f6f9e4"/>
        </g>
        <path id="XMLID_125_" d="M559.993,202.283c-3.214,4.5-6.609,5.947-9.319,11.183-.748,1.445-3.462,5.165-2.8,10.251.881,6.733,6.03,8.86,6.524,14.911.225,2.751-.931,6.37-3.728,10.251" transform="translate(-469.601 -180.848)" fill="none" stroke="#474747" stroke-linecap="round" stroke-linejoin="round" stroke-miterlimit="10" stroke-width="3"/>
        <path id="XMLID_62_" d="M583.277,150.831c2.531,10.495.3,17.457-1.864,21.435-3.948,7.256-10.7,9.471-11.183,16.775a15.115,15.115,0,0,0,1.864,8.388" transform="translate(-482.633 -150.831)" fill="none" stroke="#474747" stroke-linecap="round" stroke-linejoin="round" stroke-miterlimit="10" stroke-width="3"/>
        <path id="XMLID_6_" d="M536.92,211.145s-4.66,5.933-4.66,11.183" transform="translate(-460.507 -185.982)" fill="none" stroke="#474747" stroke-linecap="round" stroke-linejoin="round" stroke-miterlimit="10" stroke-width="3"/>
      </g>
    </g>
  </g>
</svg>
