<svg xmlns="http://www.w3.org/2000/svg" width="184.54" height="201.337" viewBox="0 0 184.54 201.337">
  <g id="Group_4" data-name="Group 4" transform="translate(-32 -43.497)">
    <path id="Path_4" data-name="Path 4" d="M247.289,140.859c14.809-3.056,26.62,12.755,39.894,20.007,13.626,7.445,33.505,9.117,39.307,23.538,5.981,14.866-7.289,30.5-11.734,45.9-3.253,11.271-4.474,23.31-11.147,32.953-6.386,9.228-16.542,14.285-25.814,20.6-9.975,6.789-18.687,15.261-30.507,17.653-13,2.631-27.323,2.161-39.307-3.531-12.371-5.875-20.581-17.413-28.16-28.833-7.933-11.953-16.082-24.487-16.427-38.837-.348-14.467,4.068-29.581,14.08-40.014,9.567-9.969,26.837-6.763,38.134-14.711,12.964-9.12,16.165-31.516,31.681-34.718" transform="translate(-128.875 -96.974)" fill="#edc5a1"/>
    <g id="Group_3" data-name="Group 3" transform="translate(33.5 86.732)">
      <g id="XMLID_11_" transform="translate(0 44.063)" opacity="0.15">
        <line id="XMLID_73_" x2="172.727" transform="translate(0 112.214)" fill="none" stroke="#474747" stroke-linecap="round" stroke-linejoin="round" stroke-miterlimit="10" stroke-width="3"/>
        <g id="XMLID_10_" transform="translate(4.113 0)">
          <line id="XMLID_3_" y1="85.189" transform="translate(142.764 27.025)" fill="none" stroke="#474747" stroke-linecap="round" stroke-linejoin="round" stroke-miterlimit="10" stroke-width="3"/>
          <path id="XMLID_2_" d="M691.115,323.331c6.343,8.239,22.591,61.1-7.05,61.1s-12.806-52.862-6.463-61.1c2.216-2.878,4.454-4.113,6.463-4.113S688.9,320.453,691.115,323.331Z" transform="translate(-541.301 -319.219)" fill="none" stroke="#474747" stroke-linecap="round" stroke-linejoin="round" stroke-miterlimit="10" stroke-width="3"/>
          <line id="XMLID_7_" y1="7.05" x2="6.463" transform="translate(142.764 33.488)" fill="none" stroke="#474747" stroke-linecap="round" stroke-linejoin="round" stroke-miterlimit="10" stroke-width="3"/>
          <line id="XMLID_8_" x1="8.813" y1="8.813" transform="translate(133.952 47.001)" fill="none" stroke="#474747" stroke-linecap="round" stroke-linejoin="round" stroke-miterlimit="10" stroke-width="3"/>
          <circle id="XMLID_12_" cx="12.72" cy="12.72" r="12.72" transform="translate(152.085 49.418)" fill="#fff"/>
          <circle id="XMLID_4_" cx="12.925" cy="12.925" r="12.925" transform="translate(151.577 49.351)" fill="none" stroke="#474747" stroke-linecap="round" stroke-linejoin="round" stroke-miterlimit="10" stroke-width="3"/>
          <line id="XMLID_9_" y1="24.088" x2="24.088" transform="translate(142.764 59.926)" fill="none" stroke="#474747" stroke-linecap="round" stroke-linejoin="round" stroke-miterlimit="10" stroke-width="3"/>
          <line id="XMLID_14_" x1="10.575" transform="translate(156.865 69.913)" fill="none" stroke="#474747" stroke-linecap="round" stroke-linejoin="round" stroke-miterlimit="10" stroke-width="3"/>
          <line id="XMLID_15_" y1="4.7" transform="translate(162.152 59.926)" fill="none" stroke="#474747" stroke-linecap="round" stroke-linejoin="round" stroke-miterlimit="10" stroke-width="6"/>
          <line id="XMLID_16_" x1="21.15" y1="21.15" transform="translate(121.614 78.139)" fill="none" stroke="#474747" stroke-linecap="round" stroke-linejoin="round" stroke-miterlimit="10" stroke-width="3"/>
          <ellipse id="XMLID_13_" cx="11.056" cy="15.027" rx="11.056" ry="15.027" transform="matrix(0.798, -0.602, 0.602, 0.798, 106.434, 74.147)" fill="none" stroke="#474747" stroke-linecap="round" stroke-linejoin="round" stroke-miterlimit="10" stroke-width="3"/>
          <line id="XMLID_79_" y1="7.05" transform="translate(132.189 81.664)" fill="none" stroke="#474747" stroke-linecap="round" stroke-linejoin="round" stroke-miterlimit="10" stroke-width="3"/>
          <line id="XMLID_80_" x2="5.288" transform="translate(121.614 83.426)" fill="none" stroke="#474747" stroke-linecap="round" stroke-linejoin="round" stroke-miterlimit="10" stroke-width="3"/>
          <rect id="XMLID_86_" width="5.875" height="14.1" transform="translate(13.513 96.939)" fill="none" stroke="#474747" stroke-linecap="round" stroke-linejoin="round" stroke-miterlimit="10" stroke-width="3"/>
          <rect id="XMLID_85_" width="5.875" height="14.1" transform="translate(74.026 96.939)" fill="none" stroke="#474747" stroke-linecap="round" stroke-linejoin="round" stroke-miterlimit="10" stroke-width="6"/>
          <rect id="XMLID_84_" width="4.113" height="31.138" transform="translate(17.625 59.338)" fill="none" stroke="#474747" stroke-linecap="round" stroke-linejoin="round" stroke-miterlimit="10" stroke-width="3"/>
          <rect id="XMLID_83_" width="4.113" height="31.138" transform="translate(71.676 59.338)" fill="none" stroke="#474747" stroke-linecap="round" stroke-linejoin="round" stroke-miterlimit="10" stroke-width="6"/>
          <rect id="XMLID_89_" width="81.406" height="8.141" transform="translate(4.537 64.682)" fill="#fff" stroke="#707070" stroke-width="3"/>
          <rect id="XMLID_82_" width="81.664" height="8.813" transform="translate(4.113 64.038)" fill="none" stroke="#474747" stroke-linecap="round" stroke-linejoin="round" stroke-miterlimit="10" stroke-width="3"/>
          <rect id="XMLID_88_" width="81.406" height="8.141" transform="translate(4.537 72.822)" fill="#fff" stroke="#707070" stroke-width="3"/>
          <rect id="XMLID_81_" width="81.664" height="8.813" transform="translate(4.113 72.851)" fill="none" stroke="#474747" stroke-linecap="round" stroke-linejoin="round" stroke-miterlimit="10" stroke-width="3"/>
          <circle id="XMLID_77_" cx="1.175" cy="1.175" r="1.175" transform="translate(72.851 67.563)" fill="none" stroke="#474747" stroke-linecap="round" stroke-linejoin="round" stroke-miterlimit="10" stroke-width="6"/>
          <ellipse id="XMLID_91_" cx="1.175" cy="0.881" rx="1.175" ry="0.881" transform="translate(72.851 76.376)" fill="none" stroke="#474747" stroke-linecap="round" stroke-linejoin="round" stroke-miterlimit="10" stroke-width="6"/>
          <circle id="XMLID_93_" cx="1.175" cy="1.175" r="1.175" transform="translate(18.213 67.563)" fill="none" stroke="#474747" stroke-linecap="round" stroke-linejoin="round" stroke-miterlimit="10" stroke-width="3"/>
          <ellipse id="XMLID_92_" cx="1.175" cy="0.881" rx="1.175" ry="0.881" transform="translate(18.213 76.376)" fill="none" stroke="#474747" stroke-linecap="round" stroke-linejoin="round" stroke-miterlimit="10" stroke-width="3"/>
          <rect id="XMLID_87_" width="92.239" height="6.463" transform="translate(0 90.476)" fill="none" stroke="#474747" stroke-linecap="round" stroke-linejoin="round" stroke-miterlimit="10" stroke-width="3"/>
        </g>
      </g>
      <g id="Group_2" data-name="Group 2" transform="translate(49.355 0)">
        <path id="XMLID_104_" d="M422.473,713.088l.588,7.05a2.648,2.648,0,0,0,2.35,2.35H458.9a3.321,3.321,0,0,0,2.938-2.35l.588-7.05Z" transform="translate(-405.733 -565.917)" fill="#d6d6d4"/>
        <path id="XMLID_74_" d="M458.311,722.488l2.35-.588,1.763-8.813H422.473v2.35h33.488C460.735,715.438,458.311,722.488,458.311,722.488Z" transform="translate(-405.733 -565.917)" fill="#bababa"/>
        <path id="XMLID_103_" d="M429.022,496.368l9.4-72.851H371.446l9.4,72.851a3.317,3.317,0,0,0,2.938,2.938h42.3A3.317,3.317,0,0,0,429.022,496.368Z" transform="translate(-368.22 -352.135)" fill="#5eb173"/>
        <path id="XMLID_75_" d="M429.022,496.368l9.4-72.851H371.446l9.4,72.851a3.317,3.317,0,0,0,2.938,2.938h42.3A3.317,3.317,0,0,0,429.022,496.368Z" transform="translate(-368.22 -352.135)" fill="#c76838"/>
        <g id="XMLID_30_" transform="translate(22.025 120.139)">
          <path id="XMLID_134_" d="M486.012,634.323a1.659,1.659,0,0,1-1.175-.587,3.484,3.484,0,0,1-1.175-2.35,3.891,3.891,0,0,1,1.175-2.938,3.084,3.084,0,0,1,1.763-.588c.082,0-.081-.013,0,0,.513.082.813.037,1.175.588a5.317,5.317,0,0,1,.587,3.525,2.826,2.826,0,0,1-2.35,2.35Zm0-3.525c-.227.542-.065.528,0,.588.006.005-.009-.005,0,0,.03-.033-.047.131,0,0A.731.731,0,0,0,486.012,630.8Z" transform="translate(-473.085 -623.153)" fill="#60a06c" opacity="0.34"/>
          <path id="XMLID_19_" d="M493.223,623.843c-.347,0-.9.183-1.175,0-.585-.393-.161-1.022,0-2.938.1-1.213-.13-2.987,0-5.875.007-.147-.011-.441,0-.587h0c-.061,0,.057-.005,0,0-.207.019-.38-.008-.588,0-.226.009-.379-.024-.587,0-.087.01-.519-.009-.588,0-.163.021.113,0,0,0-.234,0-.446.148-.587,0-.538-.561.134-1.906.587-2.35a1.415,1.415,0,0,1,1.175-.588c.345,0,.716.477,1.175.588a3.35,3.35,0,0,1,1.175-1.763,3.608,3.608,0,0,1,1.763-.587c.1,0-.1-.016,0,0a2.374,2.374,0,0,1,1.175.587,1.736,1.736,0,0,1,.588,1.175c.2-.069.332-.588.587-.588.094,0,.5.574.588.588.148.022.22-.37.587,0a2.393,2.393,0,0,1,.588,1.763v.588c.085-.036-.06.058,0,0a2.968,2.968,0,0,0,.587-1.175v-.588l1.175,1.175h0a1.481,1.481,0,0,1,0,1.763c-.393.5-1.193.587-2.35.587a10.522,10.522,0,0,1-1.175,0,28.992,28.992,0,0,1-.587,2.938c.014.532.573.751.587,1.175.078,2.318-.427,2.977-1.175,3.525-.263.193-.244.587-.587.587h0c-.314,0-.927.167-1.175,0s.044-.826,0-1.175a3.085,3.085,0,0,1-.588,1.175C494.108,624.056,493.6,623.843,493.223,623.843Zm1.763-8.813a13.2,13.2,0,0,0,0,2.35c.016.613-.016,1.273,0,1.763.007.2-.005.4,0,.587.074-.967-.075-1.854,0-3.525.013-.283-.027-.913,0-1.175Zm3.525-1.175a1.8,1.8,0,0,0,.587,0c.084,0-.073.009,0,0h0a2.159,2.159,0,0,0-.587,0c-.022,0,.023,0,0,0S498.665,613.724,498.51,613.855Zm-2.938-1.175c.144-.321.394-.362.588-.588-.017,0,.016,0,0,0-.032,0,.034-.005,0,0,0,0-.34.318-.588.588-.046.05.084-.2,0,0Z" transform="translate(-477.358 -609.736)" fill="#60a06c" opacity="0.34"/>
          <path id="XMLID_26_" d="M520.969,636.529a1.447,1.447,0,0,1-1.175-.588,2.475,2.475,0,0,1-.588-2.35c.235-1.153.971-2.97,2.35-3.525a8.113,8.113,0,0,1,1.175,0c.5,0,.84-.284,1.175,0a2.482,2.482,0,0,1,.587,2.35,2.868,2.868,0,0,1-1.175,1.763c.065.08-.018-.163,0,0a2.636,2.636,0,0,1-.588,1.762A2.543,2.543,0,0,1,520.969,636.529Zm1.175-4.7c-.074.027.094.518,0,.588C522.245,632.367,522.075,631.877,522.144,631.829Z" transform="translate(-499.229 -624.772)" fill="#60a06c" opacity="0.34"/>
          <path id="XMLID_24_" d="M536.694,638.456a1.378,1.378,0,0,1-1.175-.588,2.59,2.59,0,0,1-.587-2.35c.261-1.264.816-2.546,1.763-2.937a3.4,3.4,0,0,1,1.175,0,1.364,1.364,0,0,1,1.175.588,2.269,2.269,0,0,1,.587,1.762c-.164.55-.735.885-1.175,1.175.076.082-.018.4,0,.588.034.37.415.8,0,1.175A3.237,3.237,0,0,1,536.694,638.456Z" transform="translate(-510.842 -626.698)" fill="#60a06c" opacity="0.34"/>
          <path id="XMLID_21_" d="M450.927,626.537a3.952,3.952,0,0,1-1.175,0,4.65,4.65,0,0,1-2.938-2.938,7.485,7.485,0,0,1,0-5.875c-.387.076-.278.4-.588.587a3.237,3.237,0,0,1-1.175.588c-.179,0-.446.106-.587,0a1.4,1.4,0,0,1-.588-1.175,3.485,3.485,0,0,1,1.175-2.35c.262-.154.833,0,1.175,0a5.876,5.876,0,0,1,2.35.588,5.278,5.278,0,0,1,2.35-1.763,6.238,6.238,0,0,1,1.763,0,1.224,1.224,0,0,1,1.175.588,2.1,2.1,0,0,1,0,2.938,3.174,3.174,0,0,1-2.35,1.175c-.07,0-.521,0-.587,0a3.457,3.457,0,0,1-1.175,0c-.118-.033-.48.036-.588,0-.506,1.752-.273,3.4.588,4.113a2.058,2.058,0,0,0,1.175.588,5.071,5.071,0,0,0,.587,0,.705.705,0,0,0,.588-.588c.073-.271.156-.988,0-1.175-.11-.131-.448.056-.588,0-.155-.063-.625-.146-.587-.588.042-.5,1.2-1.175,1.763-1.175.159,0-.146-.038,0,0,1.21.312,2.048,2.032,1.763,3.525a4.223,4.223,0,0,1-1.175,2.35,3.769,3.769,0,0,1-2.35.588Zm-.588-9.4c.323.168.361,0,.588,0,.046,0-.05.006,0,0,.451-.055,1.043-.179,1.175-.588a1.073,1.073,0,0,0,0-.588c-.01-.01.138,0,0,0-.3,0-.913-.137-1.175,0h0C450.646,616.115,450.581,616.832,450.34,617.137Z" transform="translate(-443.875 -613.017)" fill="#60a06c" opacity="0.34"/>
        </g>
        <path id="XMLID_72_" d="M371.446,423.517l.587,5.875h55.813c2.124,0,3.789,1.417,3.525,3.525L425.5,493.431a5.173,5.173,0,0,1-4.113,4.7l-6.463,1.175h11.163a3.317,3.317,0,0,0,2.938-2.938l9.4-72.851Z" transform="translate(-368.22 -352.135)" fill="#c75538"/>
        <path id="XMLID_63_" d="M421.973,712.588l1.175,7.638a2.142,2.142,0,0,0,2.35,1.763h33.488a2.142,2.142,0,0,0,2.35-1.763l1.175-7.638Z" transform="translate(-405.527 -565.711)" fill="none" stroke="#474747" stroke-linecap="round" stroke-linejoin="round" stroke-miterlimit="10" stroke-width="2.5"/>
        <path id="XMLID_59_" d="M429.522,496.456l8.813-73.439H371.946l8.813,73.439a2.786,2.786,0,0,0,2.938,2.35h42.888A2.786,2.786,0,0,0,429.522,496.456Z" transform="translate(-368.426 -351.929)" fill="none" stroke="#474747" stroke-linecap="round" stroke-linejoin="round" stroke-miterlimit="10" stroke-width="2.5"/>
        <path id="XMLID_108_" d="M430.751,391.624H361.425c-2.271.021-1.962-1.185-1.175-3.525a6.189,6.189,0,0,0,0-4.113c-.787-2.34-1.1-3.546,1.175-3.525h69.326c2.271-.021,1.962,1.185,1.175,3.525a6.189,6.189,0,0,0,0,4.113C432.713,390.439,433.021,391.644,430.751,391.624Z" transform="translate(-359.373 -320.241)" fill="#646464" stroke="#707070" stroke-width="2.5"/>
        <g id="Group_1" data-name="Group 1" transform="translate(0.11 60.22)">
          <path id="Path_1" data-name="Path 1" d="M636.134,384.923c.508-1.511,1.043-2.981.587-3.525-.1.344-.448.759-.587,1.175a8.418,8.418,0,0,0,0,3.525C636.192,385.711,636.007,385.3,636.134,384.923Z" transform="translate(-563.692 -381.398)" fill="#7c7c7c"/>
          <path id="Path_2" data-name="Path 2" d="M360.127,386.1a8.419,8.419,0,0,0,0-3.525c-.14-.415-.49-.831-.587-1.175-.455.544.079,2.014.587,3.525C360.255,385.3,360.069,385.711,360.127,386.1Z" transform="translate(-359.361 -381.397)" fill="#7c7c7c"/>
          <path id="Path_3" data-name="Path 3" d="M432.385,414.419a2.488,2.488,0,0,1-1.762.587H361.3a2.488,2.488,0,0,1-1.763-.587c-.454,1.594-.1,2.367,1.763,2.35h69.326C432.49,416.786,432.839,416.013,432.385,414.419Z" transform="translate(-359.356 -405.606)" fill="#7c7c7c"/>
        </g>
        <g id="XMLID_68_" transform="translate(0.266 60.218)">
          <path id="XMLID_69_" d="M636.081,408.78c-.043-.125.035-.461,0-.588a7.854,7.854,0,0,0,0,4.113C637.053,411.9,636.7,410.61,636.081,408.78Z" transform="translate(-563.794 -401.141)" fill="#646464"/>
          <path id="XMLID_70_" d="M360.23,386.336c.271-.112,1.374-2.35,2.938-2.35h66.388c1.892,0,2.079,3.413,2.35,3.525.012-.036-.012-3.489,0-3.525.787-2.342,1.1-3.548-1.175-3.525H361.405c-2.348-.047-1.97,1.161-1.175,3.525C360.243,384.022,360.219,386.3,360.23,386.336Z" transform="translate(-359.62 -380.459)" fill="#646464"/>
          <path id="XMLID_71_" d="M360.236,412.305a7.856,7.856,0,0,0,0-4.113c-.035.127.043.462,0,.587C359.621,410.61,359.263,411.9,360.236,412.305Z" transform="translate(-359.625 -401.141)" fill="#646464"/>
        </g>
        <path id="XMLID_44_" d="M430.838,391.124H360.925c-2.271.021-1.962-1.185-1.175-3.525a6.189,6.189,0,0,0,0-4.113c-.787-2.34-1.1-3.546,1.175-3.525h69.914c2.271-.021,1.962,1.185,1.175,3.525a6.187,6.187,0,0,0,0,4.113C432.8,389.939,433.109,391.144,430.838,391.124Z" transform="translate(-359.167 -320.035)" fill="none" stroke="#474747" stroke-linecap="round" stroke-linejoin="round" stroke-miterlimit="10" stroke-width="3"/>
        <path id="XMLID_106_" d="M439.49,356.234h-65.8l.587-2.35a9.346,9.346,0,0,1,8.813-6.463h47a9.346,9.346,0,0,1,8.813,6.463Z" transform="translate(-369.875 -296.014)" fill="#d6d6d4"/>
        <path id="XMLID_66_" d="M439.49,356.234h-65.8l.587-2.35a9.346,9.346,0,0,1,8.813-6.463h47a9.346,9.346,0,0,1,8.813,6.463Z" transform="translate(-369.875 -296.014)" fill="#e9ddcb"/>
        <path id="XMLID_76_" d="M387.789,350.358H432.44c3.24,0,4.984,2.064,5.875,2.35-1.581-2.374-5.142-5.288-8.225-5.288h-47a9.346,9.346,0,0,0-8.813,6.463l-.587,2.35h5.875C380.938,353.212,384.235,350.358,387.789,350.358Z" transform="translate(-369.875 -296.014)" fill="#fdf7ee"/>
        <path id="XMLID_43_" d="M439.4,356.146H374.189l.587-2.35A8.126,8.126,0,0,1,383,347.921H430.59a8.126,8.126,0,0,1,8.225,5.875Z" transform="translate(-370.081 -296.22)" fill="none" stroke="#474747" stroke-linecap="round" stroke-linejoin="round" stroke-miterlimit="10" stroke-width="2.5"/>
        <path id="XMLID_107_" d="M524.864,332.683H506.651v-1.763a3.532,3.532,0,0,1,3.525-3.525h11.163a3.532,3.532,0,0,1,3.525,3.525Z" transform="translate(-468.174 -281.276)" fill="#d6d6d4"/>
        <path id="XMLID_67_" d="M524.864,332.683H506.651v-1.763a3.532,3.532,0,0,1,3.525-3.525h11.163a3.532,3.532,0,0,1,3.525,3.525Z" transform="translate(-468.174 -281.276)" fill="#d6d6d4" stroke="#707070" stroke-width="2.5"/>
        <path id="XMLID_78_" d="M506.652,332.684a3.657,3.657,0,0,1,3.525-3.525h11.163a3.574,3.574,0,0,1,3.525,2.938v-1.175a3.657,3.657,0,0,0-3.525-3.525H510.177a3.657,3.657,0,0,0-3.525,3.525v1.762Z" transform="translate(-468.175 -281.277)" fill="#fff"/>
        <path id="XMLID_32_" d="M462.016,512.913c-2.776,0-7.786-2.381-9.4-7.638a14.129,14.129,0,0,1,1.763-12.925,9.5,9.5,0,0,1,7.638-4.113,6.334,6.334,0,0,1,2.35,0h0c.556.314,1.078.732,1.175,1.175.165.755-.526,1.451-1.175,2.35-1.3,1.8-2.926,4.255-1.175,8.813,2.03,5.282,1.847,10.557.588,11.75A2.947,2.947,0,0,1,462.016,512.913Z" transform="translate(-427.652 -399.818)" fill="#60a06c"/>
        <path id="XMLID_42_" d="M524.776,333.183H507.151v-1.762a3.532,3.532,0,0,1,3.525-3.525h10.575a3.532,3.532,0,0,1,3.525,3.525Z" transform="translate(-468.38 -281.482)" fill="none" stroke="#474747" stroke-linecap="round" stroke-linejoin="round" stroke-miterlimit="10" stroke-width="3"/>
        <path id="XMLID_31_" d="M502.585,516.529a4.452,4.452,0,0,1-2.937-1.175,3.154,3.154,0,0,1-.588-2.35,14.4,14.4,0,0,0-1.175-5.875,16.351,16.351,0,0,1-1.175-5.288c-.015-6.366,4.173-8.588,4.7-8.813.337-.2.754,0,1.175,0,1.7,0,3.764,1.526,5.288,4.112a15.654,15.654,0,0,1,0,15.275c-1.424,2.569-3.255,4.113-5.288,4.113Z" transform="translate(-460.583 -403.434)" fill="#60a06c"/>
        <path id="XMLID_33_" d="M466.861,487.489c3.081,1.742-4.9,3.587-1.763,11.75,2.142,5.575,2.094,10.292,1.175,11.163s-8.024-.036-9.988-6.463C453.045,495.129,459.939,484.906,466.861,487.489Z" transform="translate(-430.147 -399.069)" fill="#f6f9e4"/>
        <path id="XMLID_27_" d="M504.076,492.361s-4.715,1.865-4.7,8.225c.008,3.556,2.619,7.093,2.35,11.163-.187,2.827,4.437,4.6,7.638-1.175C515,500.4,507.2,490.39,504.076,492.361Z" transform="translate(-462.662 -402.766)" fill="#f6f9e4"/>
        <g id="XMLID_102_" transform="translate(22.411 120.026)">
          <path id="XMLID_39_" d="M485.619,628.442a2.9,2.9,0,0,0,0,4.113c.077.063.034.6.588.587.991-.029,2.121-1.45,2.35-2.35a2.456,2.456,0,0,0-1.763-2.937A1.322,1.322,0,0,0,485.619,628.442Zm1.763,2.35c-.027.077-.236.539-.587.587a1.948,1.948,0,0,1-.588,0,1.69,1.69,0,0,1,0-1.763c.2-.32.481-.6.588-.588C487.157,629.056,487.623,630.115,487.382,630.792Z" transform="translate(-474.254 -623.035)" fill="#f6f9e4"/>
          <path id="XMLID_38_" d="M499.332,622.589c-.557-.374.268-1.121.588-8.225.088-1.96.153-3.993,1.175-4.7a4.091,4.091,0,0,1,1.763,0c.149.022.311-.279.587,0a1.976,1.976,0,0,1,.588,1.175,3.215,3.215,0,0,0-1.175,0,7.189,7.189,0,0,0-.588.587c-.994,1.081-.587,5.875-.587,5.875.1,3.727.138,4.755-.588,5.288A1.96,1.96,0,0,1,499.332,622.589Z" transform="translate(-485.028 -609.545)" fill="#f6f9e4"/>
          <path id="XMLID_37_" d="M510.737,627.078c-.483-.324.311-.9.587-7.05.076-1.7.289-3.5,1.175-4.113.175-.121.564-.678,1.175-.587.13.019.348.345.588.587a2.334,2.334,0,0,1,.588,1.175c-.134-.071-.278-.052-.588,0,0,0-.842-.362-1.175,0-.861.936-.588,5.288-.588,5.288.083,3.228.041,4.239-.587,4.7A1.043,1.043,0,0,1,510.737,627.078Z" transform="translate(-493.497 -614.034)" fill="#f6f9e4"/>
          <path id="XMLID_36_" d="M522.3,634.081c-.224.058-.368.159-.588,0a1.692,1.692,0,0,1,0-2.35c.1-.111.64-.775,1.175-.588.161.057.573-.193.587,0,.032.432-.937,1.115-1.763,1.175a4.115,4.115,0,0,1-1.175,0,.442.442,0,0,0,0,.587c.168.5,1.023.007,1.175,0,.1,0,2.575.154,2.938-1.175a1.994,1.994,0,0,0-.588-1.763c-.672-.571-1.62-.058-1.763,0-1.843.742-2.711,3.75-1.763,4.7a1.808,1.808,0,0,0,2.35,0c.419-.411.706-1.1.587-1.175S522.88,633.932,522.3,634.081Z" transform="translate(-500.362 -624.562)" fill="#f6f9e4"/>
          <path id="XMLID_35_" d="M537.991,636.684a2.423,2.423,0,0,1-1.175,0c-.49-.356,0-1.635.587-2.35.09-.11.232-.707.588-.587.173.058.594-.188.587,0a1.606,1.606,0,0,1-1.175,1.175,3.88,3.88,0,0,1-1.175,0,.491.491,0,0,0,0,.588c.131.389.792.03,1.175,0,.685-.053,2.075-.251,2.35-1.175a2.158,2.158,0,0,0-.588-1.175,1.722,1.722,0,0,0-1.763-.588c-1.529.632-2.08,3.183-1.175,4.113.518.532,1.209,1.091,1.763.587.381-.347.7-1.109.587-1.175S538.5,636.551,537.991,636.684Z" transform="translate(-511.938 -626.577)" fill="#f6f9e4"/>
          <path id="XMLID_34_" d="M500.923,618.693c-.028.327.317.283,0,.588-1.8,1.729-8.231-2.894-9.988-1.175-.38.372-.808.945-.587,1.175.1.105.106.054.587,0,.425-.048.749.04,1.175,0,1.041-.1,3.048.825,4.7,1.175.416.088,3.326.415,4.113-.588.1-.126.8-.753.588-1.175h0C501.348,618.541,501.086,618.846,500.923,618.693Z" transform="translate(-478.395 -615.636)" fill="#f6f9e4"/>
          <path id="XMLID_25_" d="M449.4,616.348a3.78,3.78,0,0,0,2.35.587,2.278,2.278,0,0,0,1.763-1.175c.085-.263-.34-.333-.587-.588-.377-.388-1.251-.267-1.763,0h0c-2.262,1.234-3,6.117-1.175,7.638a3.354,3.354,0,0,0,2.35.587,1.832,1.832,0,0,0,1.175-1.175c.111-.412-.306-.838-.587-1.175-.336-.4-.6-.449-.588-.588a1.335,1.335,0,0,1,1.175-.588c.929.239,1.413,1.694,1.175,2.938a5.044,5.044,0,0,1-1.175,2.35c-.937.673-2.482.318-3.525,0a3.508,3.508,0,0,1-2.35-2.35c-1.282-3.284,1.126-7.867,4.113-8.813.22-.07,1.666-.774,2.35,0a2.565,2.565,0,0,1,0,2.938,4.3,4.3,0,0,1-2.35,1.175c-.521.031-.653-.44-1.175-.588a16.5,16.5,0,0,0-2.35-.587c-1.414-.211-2.473.935-2.937.587-.412-.308-.188-1.893.588-2.35S447.948,615.641,449.4,616.348Z" transform="translate(-445.089 -612.704)" fill="#f6f9e4"/>
        </g>
        <path id="XMLID_125_" d="M555.477,202.283c-2.026,2.84-4.166,3.749-5.875,7.05-.472.911-2.182,3.256-1.763,6.463.555,4.245,3.8,5.585,4.113,9.4.142,1.735-.587,4.016-2.35,6.463" transform="translate(-498.494 -188.77)" fill="none" stroke="#474747" stroke-linecap="round" stroke-linejoin="round" stroke-miterlimit="10" stroke-width="2.5"/>
        <path id="XMLID_62_" d="M578.443,150.831c1.6,6.616.189,11.005-1.175,13.513-2.489,4.574-6.744,5.97-7.05,10.575a9.529,9.529,0,0,0,1.175,5.288" transform="translate(-514.997 -150.831)" fill="none" stroke="#474747" stroke-linecap="round" stroke-linejoin="round" stroke-miterlimit="10" stroke-width="2.5"/>
        <path id="XMLID_6_" d="M535.2,211.145s-2.938,3.74-2.938,7.05" transform="translate(-487.027 -195.282)" fill="none" stroke="#474747" stroke-linecap="round" stroke-linejoin="round" stroke-miterlimit="10" stroke-width="2.5"/>
      </g>
    </g>
  </g>
</svg>
